#!OML:ASF F:\twosubjects\two\Thursday\Session 1\justin.ASF
:FULLY-SPECIFIED
:DEGREES
337
root 6.68629 17.39 -7.09461 19.8319 -1.73505 0.845492
lowerback 22.3376 0.0875144 -0.63187
upperback 4.86647 0.135421 2.00584
thorax -7.14249 0.086223 2.50525
lowerneck -17.0578 -3.67588 -9.61948
upperneck 14.6582 -3.98248 7.59134
head 7.66953 -1.72494 3.63097
rclavicle 4.77083e-015 3.18055e-015
rhumerus -5.53976 39.7594 -82.3727
rradius 41.2638
rwrist 19.1177
rhand -52.6678 37.6149
rfingers 7.12502
rthumb -25.1475 9.25124
lclavicle 4.77083e-015 3.18055e-015
lhumerus -5.62692 -38.8052 89.2019
lradius 37.7844
lwrist -31.7931
lhand -25.1666 60.5526
lfingers 7.12502
lthumb 1.35067 269.472
rfemur -35.6876 -3.12009 2.12549
rtibia 31.0473
rfoot -13.1215 -10.1426
rtoes -22.6354
lfemur -28.8919 4.71397 -4.45434
ltibia 20.0802
lfoot -10.2833 0.770614
ltoes -24.4653
338
root 6.68587 17.3886 -7.09447 19.8166 -1.72528 0.971156
lowerback 22.0485 0.0674802 -0.84624
upperback 5.40532 0.0571305 2.05183
thorax -6.39966 0.0400724 2.69071
lowerneck -18.5698 -3.75941 -9.63172
upperneck 14.861 -3.95994 7.58577
head 7.99628 -1.68708 3.6291
rclavicle 3.57812e-015 2.14687e-014
rhumerus -4.01779 40.008 -81.332
rradius 41.1949
rwrist 18.9828
rhand -52.7937 37.6334
rfingers 7.12502
rthumb -25.2681 9.28672
lclavicle 3.57812e-015 2.14687e-014
lhumerus -4.29861 -39.1057 88.3452
lradius 37.8653
lwrist -30.9288
lhand -26.0157 61.3053
lfingers 7.12502
lthumb 0.530605 268.716
rfemur -35.6816 -3.20719 2.00663
rtibia 31.1075
rfoot -13.1934 -9.98651
rtoes -22.8077
lfemur -28.9356 4.69492 -4.62081
ltibia 20.1193
lfoot -10.2555 0.774479
ltoes -24.9059
339
root 6.68736 17.3896 -7.0897 19.7837 -1.8204 1.27817
lowerback 22.0804 0.0632311 -1.1035
upperback 4.45034 -0.0103775 1.84979
thorax -7.45596 0.0317525 2.64776
lowerneck -14.4862 -3.33098 -9.75421
upperneck 13.7525 -3.704 7.72843
head 6.90928 -1.6335 3.73431
rclavicle -5.56597e-015 -1.98785e-015
rhumerus -6.98715 39.7823 -83.4772
rradius 41.3409
rwrist 19.436
rhand -52.9713 37.9426
rfingers 7.12502
rthumb -25.4383 9.62007
lclavicle -5.56597e-015 -1.98785e-015
lhumerus -7.21755 -39.3815 89.9948
lradius 38.0659
lwrist -30.469
lhand -26.4253 61.5534
lfingers 7.12502
lthumb 0.135 268.467
rfemur -35.6575 -3.32035 1.64265
rtibia 31.2156
rfoot -13.3329 -9.75047
rtoes -23.0135
lfemur -28.8425 4.70162 -5.03273
ltibia 19.9876
lfoot -10.2306 0.674155
ltoes -26.2715
340
root 6.68552 17.3896 -7.09538 19.7066 -1.89714 1.48489
lowerback 21.8706 0.126565 -1.33377
upperback 5.36245 0.0125859 1.85706
thorax -6.35092 0.024038 2.769
lowerneck -17.7129 -3.74825 -9.8242
upperneck 14.231 -3.95248 7.61522
head 7.6439 -1.70542 3.66784
rclavicle 3.57812e-015 1.78906e-014
rhumerus -4.51047 39.629 -81.8487
rradius 41.2522
rwrist 19.2393
rhand -53.0011 38.1409
rfingers 7.12502
rthumb -25.4668 9.82249
lclavicle 3.57812e-015 1.78906e-014
lhumerus -4.71219 -39.5665 88.5322
lradius 37.8956
lwrist -30.1913
lhand -26.4311 61.6158
lfingers 7.12502
lthumb 0.12936 268.404
rfemur -35.6768 -3.25499 1.35058
rtibia 31.3382
rfoot -13.5227 -9.79081
rtoes -22.4895
lfemur -28.633 4.59416 -5.24454
ltibia 19.7128
lfoot -10.0863 0.814141
ltoes -26.0182
341
root 6.68081 17.3833 -7.10407 19.5796 -1.80075 1.39778
lowerback 21.9906 0.148795 -1.21677
upperback 5.65824 0.0656154 1.88583
thorax -6.09424 0.0422404 2.71753
lowerneck -18.3863 -3.82192 -9.78501
upperneck 14.2472 -3.9764 7.49248
head 7.76363 -1.71339 3.61357
rclavicle -2.78299e-015 -2.42517e-014
rhumerus -3.80161 39.5289 -81.3142
rradius 41.2617
rwrist 19.1896
rhand -53.013 38.0984
rfingers 7.12502
rthumb -25.4782 9.78161
lclavicle -2.78299e-015 -2.42517e-014
lhumerus -3.90053 -39.9291 88.0261
lradius 37.8653
lwrist -29.903
lhand -26.2168 61.5143
lfingers 7.12502
lthumb 0.336378 268.506
rfemur -35.6231 -3.13444 1.43813
rtibia 31.4067
rfoot -13.6166 -9.92706
rtoes -22.2783
lfemur -28.4513 4.28243 -4.98478
ltibia 19.5055
lfoot -9.91902 1.06308
ltoes -23.6936
342
root 6.67783 17.3778 -7.10692 19.4576 -1.63253 1.1614
lowerback 22.1407 0.116726 -0.899424
upperback 5.67531 0.0956629 1.91827
thorax -6.15515 0.0542259 2.56418
lowerneck -18.8108 -3.91879 -9.93663
upperneck 14.607 -4.1189 7.89138
head 7.98183 -1.74417 3.75888
rclavicle -1.03368e-014 -5.96354e-015
rhumerus -3.93459 39.4565 -81.4106
rradius 41.2667
rwrist 19.1634
rhand -53.1508 38.6733
rfingers 7.12502
rthumb -25.6102 10.3754
lclavicle -1.03368e-014 -5.96354e-015
lhumerus -3.88099 -40.1637 87.9605
lradius 37.8387
lwrist -29.7919
lhand -25.8768 61.2891
lfingers 7.12502
lthumb 0.664781 268.732
rfemur -35.4872 -3.13043 1.76829
rtibia 31.4071
rfoot -13.4249 -10.06
rtoes -22.8388
lfemur -28.3371 4.08619 -4.59379
ltibia 19.4272
lfoot -9.85124 1.14051
ltoes -22.6732
343
root 6.67767 17.3881 -7.10743 19.4186 -1.58226 1.11359
lowerback 22.1696 0.102062 -0.726653
upperback 5.67447 0.110628 1.86535
thorax -6.17177 0.0598977 2.40397
lowerneck -18.5502 -3.86721 -9.99304
upperneck 14.5783 -4.0772 7.9967
head 7.92697 -1.72252 3.81039
rclavicle -4.77083e-015 -3.06128e-014
rhumerus -3.91039 39.4417 -81.4854
rradius 41.1178
rwrist 19.1152
rhand -53.3246 39.0518
rfingers 7.12502
rthumb -25.7767 10.7779
lclavicle -4.77083e-015 -3.06128e-014
lhumerus -3.90988 -40.1965 87.9164
lradius 37.7849
lwrist -29.9381
lhand -25.9419 61.1327
lfingers 7.12502
lthumb 0.601906 268.888
rfemur -35.3912 -3.19214 1.86019
rtibia 31.3521
rfoot -13.309 -10.0154
rtoes -23.0558
lfemur -28.2744 4.09983 -4.56905
ltibia 19.4239
lfoot -9.85662 1.05812
ltoes -24.4266
344
root 6.67794 17.3965 -7.10916 19.4085 -1.57933 1.20765
lowerback 22.0876 0.0996791 -0.808906
upperback 5.72307 0.0882792 1.85558
thorax -6.07546 0.0487057 2.44522
lowerneck -18.4882 -3.7939 -9.80814
upperneck 14.4572 -3.99803 7.84345
head 7.86098 -1.69009 3.73641
rclavicle 3.18055e-015 -3.97569e-015
rhumerus -3.69641 39.6841 -81.3013
rradius 40.9431
rwrist 19.0517
rhand -53.1031 38.805
rfingers 7.12502
rthumb -25.5645 10.5005
lclavicle 3.18055e-015 -3.97569e-015
lhumerus -3.9521 -40.1034 87.9571
lradius 37.8472
lwrist -30.0089
lhand -25.925 60.739
lfingers 7.12502
lthumb 0.618178 269.282
rfemur -35.301 -3.25966 1.75936
rtibia 31.2437
rfoot -13.4295 -10.0272
rtoes -22.8357
lfemur -28.3223 4.11005 -4.71381
ltibia 19.557
lfoot -9.93026 0.923968
ltoes -24.7059
345
root 6.67673 17.3939 -7.1119 19.439 -1.43195 1.22941
lowerback 21.9738 0.0549923 -0.830611
upperback 5.76861 0.030499 1.91619
thorax -5.96427 0.0198728 2.53705
lowerneck -18.5107 -3.76746 -9.71652
upperneck 14.3801 -3.95526 7.70831
head 7.83028 -1.67693 3.67961
rclavicle -3.57812e-015 3.18055e-015
rhumerus -3.62685 39.8822 -81.1153
rradius 40.9696
rwrist 18.8495
rhand -52.8457 38.9948
rfingers 7.12502
rthumb -25.318 10.6552
lclavicle -3.57812e-015 3.18055e-015
lhumerus -3.92104 -39.835 87.9845
lradius 37.918
lwrist -30.3516
lhand -25.5804 60.3909
lfingers 7.12502
lthumb 0.950963 269.631
rfemur -35.2327 -3.33186 1.76894
rtibia 31.1251
rfoot -13.4616 -10.2428
rtoes -22.7168
lfemur -28.5415 4.07622 -4.7208
ltibia 19.7875
lfoot -10.0153 0.898369
ltoes -23.8136
346
root 6.67493 17.3924 -7.11125 19.3984 -1.26095 1.13378
lowerback 21.9458 0.0371634 -0.685102
upperback 5.82993 0.0423094 1.96679
thorax -5.8839 0.023284 2.50444
lowerneck -18.8303 -3.8793 -9.90313
upperneck 14.6604 -4.10225 8.03379
head 8.00388 -1.7202 3.80503
rclavicle 4.37326e-015 -3.97569e-015
rhumerus -3.71878 39.847 -81.077
rradius 41.0891
rwrist 18.6682
rhand -52.8418 38.9258
rfingers 7.12502
rthumb -25.3142 10.5857
lclavicle 4.37326e-015 -3.97569e-015
lhumerus -3.77613 -39.969 87.9246
lradius 37.9525
lwrist -30.4418
lhand -25.5961 60.8145
lfingers 7.12502
lthumb 0.935846 269.208
rfemur -35.0998 -3.31292 1.88092
rtibia 31.0665
rfoot -13.421 -10.4078
rtoes -22.7081
lfemur -28.6084 4.0911 -4.61483
ltibia 19.9087
lfoot -10.0929 0.816203
ltoes -24.5313
